<svg width="24" height="24" viewBox="0 0 24 24" fill="none" xmlns="http://www.w3.org/2000/svg">
<path d="M7.35977 21.6562C7.06277 21.8127 6.76202 21.8792 6.45752 21.8557C6.15302 21.8322 5.87177 21.7267 5.61377 21.5392C5.35577 21.3517 5.16827 21.1135 5.05127 20.8245C4.93427 20.5355 4.89902 20.2347 4.94552 19.9222L5.83652 14.7427L2.08652 11.0864C1.85202 10.8674 1.69977 10.6057 1.62977 10.3012C1.55977 9.99668 1.57552 9.69193 1.67702 9.38693C1.77852 9.08193 1.94652 8.83193 2.18102 8.63693C2.41552 8.44193 2.68902 8.32093 3.00152 8.27393L8.20502 7.52393L10.5255 2.81318C10.666 2.51618 10.8693 2.28968 11.1353 2.13368C11.4013 1.97768 11.6903 1.89943 12.0023 1.89893C12.3143 1.89843 12.6033 1.97668 12.8693 2.13368C13.1353 2.29068 13.3385 2.51718 13.479 2.81318L15.7995 7.52393L21.003 8.27393C21.3155 8.32093 21.5928 8.44193 21.8348 8.63693C22.0768 8.83193 22.2448 9.08193 22.3388 9.38693C22.4328 9.69193 22.4445 9.99668 22.374 10.3012C22.3035 10.6057 22.1513 10.8674 21.9173 11.0864L18.1673 14.7427L19.0583 19.9222C19.1053 20.2347 19.07 20.5355 18.9525 20.8245C18.835 21.1135 18.6475 21.3517 18.39 21.5392C18.1325 21.7267 17.8513 21.8322 17.5463 21.8557C17.2413 21.8792 16.9405 21.8207 16.644 21.6802L12.003 19.2194L7.35977 21.6562Z" fill="#FABE3E"/>
</svg>
