<svg width="24" height="24" viewBox="0 0 24 24" fill="none" xmlns="http://www.w3.org/2000/svg">
<path d="M12 17.5312L17.3438 20.3437C17.4063 20.3592 17.461 20.3514 17.508 20.3204C17.555 20.2894 17.5708 20.2424 17.5553 20.1794L16.5473 14.2259L20.8598 10.0072C20.9068 9.96018 20.9225 9.90943 20.907 9.85493C20.8915 9.80043 20.8525 9.76518 20.79 9.74918L14.8133 8.88218L12.141 3.46793C12.1095 3.40543 12.0625 3.37418 12 3.37418C11.9375 3.37418 11.8905 3.40543 11.859 3.46793L9.18677 8.88218L3.21002 9.74918C3.14752 9.76468 3.10852 9.79993 3.09302 9.85493C3.07752 9.90993 3.09327 9.96068 3.14027 10.0072L7.45277 14.2259L6.42152 20.1794C6.42152 20.2419 6.44502 20.2889 6.49202 20.3204C6.53902 20.3519 6.59377 20.3597 6.65627 20.3437L12 17.5312ZM7.35977 21.6562C7.06277 21.8127 6.76202 21.8792 6.45752 21.8557C6.15302 21.8322 5.87177 21.7267 5.61377 21.5392C5.35577 21.3517 5.16827 21.1135 5.05127 20.8245C4.93427 20.5355 4.89902 20.2347 4.94552 19.9222L5.83652 14.7427L2.08652 11.0864C1.85202 10.8675 1.69977 10.6057 1.62977 10.3012C1.55977 9.99668 1.57552 9.69193 1.67702 9.38693C1.77852 9.08193 1.94652 8.83193 2.18102 8.63693C2.41552 8.44193 2.68902 8.32093 3.00152 8.27393L8.20502 7.52393L10.5255 2.81318C10.666 2.51618 10.8693 2.28968 11.1353 2.13368C11.4013 1.97768 11.6903 1.89943 12.0023 1.89893C12.3143 1.89843 12.6033 1.97668 12.8693 2.13368C13.1353 2.29068 13.3385 2.51718 13.479 2.81318L15.7995 7.52393L21.003 8.27393C21.3155 8.32093 21.5928 8.44193 21.8348 8.63693C22.0768 8.83193 22.2448 9.08193 22.3388 9.38693C22.4328 9.69193 22.4445 9.99668 22.374 10.3012C22.3035 10.6057 22.1513 10.8675 21.9173 11.0864L18.1673 14.7427L19.0583 19.9222C19.1053 20.2347 19.07 20.5355 18.9525 20.8245C18.835 21.1135 18.6475 21.3517 18.39 21.5392C18.1325 21.7267 17.8513 21.8322 17.5463 21.8557C17.2413 21.8792 16.9405 21.8207 16.644 21.6802L12.003 19.2194L7.35977 21.6562Z" fill="#B0BAC8"/>
</svg>
